<svg xmlns="http://www.w3.org/2000/svg" viewBox="0 0 800 400" width="800" height="400">
  <style>
    @keyframes drawLine {
      to { stroke-dashoffset: 0; }
    }
    @keyframes fadeInPoint {
      from { opacity: 0; }
      to { opacity: 1; }
    }
    .data-line-0 {
      stroke-dasharray: 1054;
      stroke-dashoffset: 1054;
      animation: drawLine 2s ease-out forwards;
    }
    .data-point {
      opacity: 0;
      animation: fadeInPoint 0.5s ease-out forwards;
    }
    .chart-bg { fill: #fff; }
    .chart-text { fill: #24292e; }
    .chart-muted { fill: #6a737d; }
    .chart-grid { stroke: #eee; }
    .chart-axis { stroke: #6a737d; }
    @media (prefers-color-scheme: dark) {
      .chart-bg { fill: #0d1117; }
      .chart-text { fill: #e6edf3; }
      .chart-muted { fill: #8b949e; }
      .chart-grid { stroke: #21262d; }
      .chart-axis { stroke: #8b949e; }
    }
  </style>
  <rect width="800" height="400" class="chart-bg" />
  <text x="400" y="14" text-anchor="middle" class="chart-text" font-size="16" font-weight="bold" font-family="-apple-system, BlinkMacSystemFont, 'Segoe UI', Helvetica, Arial, sans-serif">Growth Forecast</text>
  <g class="legend">
    <rect x="220" y="31" width="12" height="3" fill="#dfb317" />
    <line x1="220" y1="32.5" x2="232" y2="32.5" stroke="#dfb317" stroke-width="2" />
    <text x="236" y="36" class="chart-text" font-size="10" font-family="-apple-system, BlinkMacSystemFont, 'Segoe UI', Helvetica, Arial, sans-serif">Star History</text>
    <rect x="340" y="31" width="12" height="3" fill="#28a745" rx="1" />
    <line x1="340" y1="32.5" x2="352" y2="32.5" stroke="#28a745" stroke-width="2" stroke-dasharray="4,2" />
    <text x="356" y="36" class="chart-text" font-size="10" font-family="-apple-system, BlinkMacSystemFont, 'Segoe UI', Helvetica, Arial, sans-serif">Linear Regression</text>
    <rect x="460" y="31" width="12" height="3" fill="#d73a49" rx="1" />
    <line x1="460" y1="32.5" x2="472" y2="32.5" stroke="#d73a49" stroke-width="2" stroke-dasharray="4,2" />
    <text x="476" y="36" class="chart-text" font-size="10" font-family="-apple-system, BlinkMacSystemFont, 'Segoe UI', Helvetica, Arial, sans-serif">Weighted Moving Average</text>
  </g>
  <g class="grid">
    <line x1="60" y1="350" x2="770" y2="350" class="chart-grid" stroke-opacity="0.3" />
    <text x="52" y="354" text-anchor="end" class="chart-muted" font-size="11" font-family="-apple-system, BlinkMacSystemFont, 'Segoe UI', Helvetica, Arial, sans-serif">0</text>
    <line x1="60" y1="259.6385542168675" x2="770" y2="259.6385542168675" class="chart-grid" stroke-opacity="0.3" />
    <text x="52" y="263.6385542168675" text-anchor="end" class="chart-muted" font-size="11" font-family="-apple-system, BlinkMacSystemFont, 'Segoe UI', Helvetica, Arial, sans-serif">200</text>
    <line x1="60" y1="169.27710843373492" x2="770" y2="169.27710843373492" class="chart-grid" stroke-opacity="0.3" />
    <text x="52" y="173.27710843373492" text-anchor="end" class="chart-muted" font-size="11" font-family="-apple-system, BlinkMacSystemFont, 'Segoe UI', Helvetica, Arial, sans-serif">400</text>
    <line x1="60" y1="78.91566265060243" x2="770" y2="78.91566265060243" class="chart-grid" stroke-opacity="0.3" />
    <text x="52" y="82.91566265060243" text-anchor="end" class="chart-muted" font-size="11" font-family="-apple-system, BlinkMacSystemFont, 'Segoe UI', Helvetica, Arial, sans-serif">600</text>
  </g>
  <g class="milestones">
    
  </g>
  <g class="x-axis">
    <text x="60" y="370" text-anchor="middle" class="chart-muted" font-size="11" font-family="-apple-system, BlinkMacSystemFont, 'Segoe UI', Helvetica, Arial, sans-serif">Aug 2</text>
    <text x="146.06060606060606" y="370" text-anchor="middle" class="chart-muted" font-size="11" font-family="-apple-system, BlinkMacSystemFont, 'Segoe UI', Helvetica, Arial, sans-serif">Jun 4</text>
    <text x="232.12121212121212" y="370" text-anchor="middle" class="chart-muted" font-size="11" font-family="-apple-system, BlinkMacSystemFont, 'Segoe UI', Helvetica, Arial, sans-serif">Apr 5</text>
    <text x="318.1818181818182" y="370" text-anchor="middle" class="chart-muted" font-size="11" font-family="-apple-system, BlinkMacSystemFont, 'Segoe UI', Helvetica, Arial, sans-serif">Feb 5</text>
    <text x="404.24242424242425" y="370" text-anchor="middle" class="chart-muted" font-size="11" font-family="-apple-system, BlinkMacSystemFont, 'Segoe UI', Helvetica, Arial, sans-serif">Dec 8</text>
    <text x="490.3030303030303" y="370" text-anchor="middle" class="chart-muted" font-size="11" font-family="-apple-system, BlinkMacSystemFont, 'Segoe UI', Helvetica, Arial, sans-serif">Oct 8</text>
    <text x="576.3636363636364" y="370" text-anchor="middle" class="chart-muted" font-size="11" font-family="-apple-system, BlinkMacSystemFont, 'Segoe UI', Helvetica, Arial, sans-serif">Aug 10</text>
    <text x="662.4242424242425" y="370" text-anchor="middle" class="chart-muted" font-size="11" font-family="-apple-system, BlinkMacSystemFont, 'Segoe UI', Helvetica, Arial, sans-serif">Jun 11</text>
    <text x="748.4848484848485" y="370" text-anchor="middle" class="chart-muted" font-size="11" font-family="-apple-system, BlinkMacSystemFont, 'Segoe UI', Helvetica, Arial, sans-serif">Week 3</text>
    <text x="770" y="370" text-anchor="middle" class="chart-muted" font-size="11" font-family="-apple-system, BlinkMacSystemFont, 'Segoe UI', Helvetica, Arial, sans-serif">Week 4</text>
  </g>
  <line x1="60" y1="50" x2="60" y2="350" class="chart-axis" stroke-width="1" />
  <line x1="60" y1="350" x2="770" y2="350" class="chart-axis" stroke-width="1" />
  <path d="M60,350 L60,349.54819277108436 C67.17171717171718,347.28915662650604 74.34343434343434,344.5030120481928 81.51515151515152,342.7710843373494 C88.68686868686869,341.03915662650604 95.85858585858585,340.210843373494 103.03030303030303,339.1566265060241 C110.20202020202021,338.1024096385542 117.37373737373737,337.19879518072287 124.54545454545455,336.4457831325301 C131.7171717171717,335.6927710843373 138.88888888888889,335.4668674698795 146.06060606060606,334.6385542168675 C153.23232323232324,333.81024096385545 160.4040404040404,332.53012048192767 167.57575757575756,331.4759036144578 C174.74747474747474,330.4216867469879 181.91919191919192,329.51807228915663 189.0909090909091,328.3132530120482 C196.26262626262627,327.1084337349398 203.43434343434345,326.50602409638554 210.60606060606062,324.2469879518072 C217.7777777777778,321.9879518072289 224.94949494949495,317.7710843373494 232.12121212121212,314.7590361445783 C239.2929292929293,311.7469879518072 246.46464646464645,308.50903614457826 253.63636363636363,306.1746987951807 C260.8080808080808,303.8403614457831 267.979797979798,302.6355421686747 275.1515151515151,300.7530120481928 C282.3232323232323,298.87048192771084 289.4949494949495,297.28915662650604 296.66666666666663,294.87951807228916 C303.83838383838383,292.4698795180723 311.010101010101,288.7801204819277 318.1818181818182,286.2951807228916 C325.35353535353534,283.81024096385545 332.52525252525254,282.2289156626506 339.6969696969697,279.9698795180723 C346.8686868686869,277.71084337349396 354.04040404040404,275.6777108433735 361.21212121212125,272.7409638554217 C368.3838383838384,269.8042168674699 375.55555555555554,265.5120481927711 382.7272727272727,262.34939759036143 C389.8989898989899,259.1867469879518 397.07070707070704,256.55120481927713 404.24242424242425,253.76506024096386 C411.4141414141414,250.97891566265062 418.5858585858586,248.26807228915663 425.75757575757575,245.63253012048193 C432.9292929292929,242.99698795180723 440.1010101010101,240.88855421686748 447.27272727272725,237.95180722891567 C454.44444444444446,235.01506024096386 461.6161616161616,231.25 468.7878787878788,228.0120481927711 C475.95959595959596,224.77409638554218 483.13131313131316,221.7620481927711 490.3030303030303,218.52409638554218 C497.47474747474746,215.28614457831327 504.64646464646466,211.2198795180723 511.8181818181818,208.5843373493976 C518.989898989899,205.9487951807229 526.1616161616162,204.81927710843374 533.3333333333333,202.710843373494 C540.5050505050505,200.60240963855424 547.6767676767677,198.4186746987952 554.8484848484849,195.93373493975906 C562.0202020202021,193.44879518072293 569.1919191919192,190.66265060240966 576.3636363636364,187.80120481927713 C583.5353535353536,184.9397590361446 590.7070707070707,182.22891566265062 597.8787878787879,178.76506024096386 C605.0505050505051,175.3012048192771 612.2222222222222,171.83734939759032 619.3939393939394,167.0180722891566 C626.5656565656566,162.19879518072287 633.7373737373738,155.87349397590364 640.909090909091,149.84939759036146 C648.0808080808082,143.8253012048193 655.2525252525253,142.16867469879523 662.4242424242425,130.8734939759036 C669.5959595959596,119.57831325301206 676.7676767676768,98.34337349397589 683.9393939393939,82.07831325301203 L683.9393939393939,350 L60,350 Z" fill="#dfb317" fill-opacity="0.1" />
  
  
  <path d="M60,350 L60,349.54819277108436 C67.17171717171718,347.28915662650604 74.34343434343434,344.5030120481928 81.51515151515152,342.7710843373494 C88.68686868686869,341.03915662650604 95.85858585858585,340.210843373494 103.03030303030303,339.1566265060241 C110.20202020202021,338.1024096385542 117.37373737373737,337.19879518072287 124.54545454545455,336.4457831325301 C131.7171717171717,335.6927710843373 138.88888888888889,335.4668674698795 146.06060606060606,334.6385542168675 C153.23232323232324,333.81024096385545 160.4040404040404,332.53012048192767 167.57575757575756,331.4759036144578 C174.74747474747474,330.4216867469879 181.91919191919192,329.51807228915663 189.0909090909091,328.3132530120482 C196.26262626262627,327.1084337349398 203.43434343434345,326.50602409638554 210.60606060606062,324.2469879518072 C217.7777777777778,321.9879518072289 224.94949494949495,317.7710843373494 232.12121212121212,314.7590361445783 C239.2929292929293,311.7469879518072 246.46464646464645,308.50903614457826 253.63636363636363,306.1746987951807 C260.8080808080808,303.8403614457831 267.979797979798,302.6355421686747 275.1515151515151,300.7530120481928 C282.3232323232323,298.87048192771084 289.4949494949495,297.28915662650604 296.66666666666663,294.87951807228916 C303.83838383838383,292.4698795180723 311.010101010101,288.7801204819277 318.1818181818182,286.2951807228916 C325.35353535353534,283.81024096385545 332.52525252525254,282.2289156626506 339.6969696969697,279.9698795180723 C346.8686868686869,277.71084337349396 354.04040404040404,275.6777108433735 361.21212121212125,272.7409638554217 C368.3838383838384,269.8042168674699 375.55555555555554,265.5120481927711 382.7272727272727,262.34939759036143 C389.8989898989899,259.1867469879518 397.07070707070704,256.55120481927713 404.24242424242425,253.76506024096386 C411.4141414141414,250.97891566265062 418.5858585858586,248.26807228915663 425.75757575757575,245.63253012048193 C432.9292929292929,242.99698795180723 440.1010101010101,240.88855421686748 447.27272727272725,237.95180722891567 C454.44444444444446,235.01506024096386 461.6161616161616,231.25 468.7878787878788,228.0120481927711 C475.95959595959596,224.77409638554218 483.13131313131316,221.7620481927711 490.3030303030303,218.52409638554218 C497.47474747474746,215.28614457831327 504.64646464646466,211.2198795180723 511.8181818181818,208.5843373493976 C518.989898989899,205.9487951807229 526.1616161616162,204.81927710843374 533.3333333333333,202.710843373494 C540.5050505050505,200.60240963855424 547.6767676767677,198.4186746987952 554.8484848484849,195.93373493975906 C562.0202020202021,193.44879518072293 569.1919191919192,190.66265060240966 576.3636363636364,187.80120481927713 C583.5353535353536,184.9397590361446 590.7070707070707,182.22891566265062 597.8787878787879,178.76506024096386 C605.0505050505051,175.3012048192771 612.2222222222222,171.83734939759032 619.3939393939394,167.0180722891566 C626.5656565656566,162.19879518072287 633.7373737373738,155.87349397590364 640.909090909091,149.84939759036146 C648.0808080808082,143.8253012048193 655.2525252525253,142.16867469879523 662.4242424242425,130.8734939759036 C669.5959595959596,119.57831325301206 676.7676767676768,98.34337349397589 683.9393939393939,82.07831325301203" fill="none" stroke="#dfb317" stroke-width="2.5" class="data-line-0" />
  <path d="M683.9393939393939,82.07831325301203 C691.1111111111111,81.77710843373491 698.2828282828282,81.40060240963852 705.4545454545454,81.17469879518069 C712.6262626262626,80.94879518072285 719.7979797979798,80.94879518072287 726.969696969697,80.72289156626505 C734.1414141414142,80.49698795180723 741.3131313131313,80.0451807228916 748.4848484848485,79.81927710843377 C755.6565656565657,79.59337349397593 762.8282828282828,79.51807228915663 770,79.36746987951807" fill="none" stroke="#28a745" stroke-width="2.5" stroke-dasharray="8,4" />
  <path d="M683.9393939393939,82.07831325301203 C691.1111111111111,81.77710843373491 698.2828282828282,81.55120481927706 705.4545454545454,81.17469879518069 C712.6262626262626,80.79819277108432 719.7979797979798,80.19578313253014 726.969696969697,79.81927710843377 C734.1414141414142,79.4427710843374 741.3131313131313,79.29216867469881 748.4848484848485,78.91566265060243 C755.6565656565657,78.53915662650604 762.8282828282828,78.0120481927711 770,77.56024096385545" fill="none" stroke="#d73a49" stroke-width="2.5" stroke-dasharray="8,4" />
  <g class="points">
    
    <circle cx="60" cy="349.54819277108436" r="4" fill="#dfb317" class="data-point" style="animation-delay: 1.50s" />
    <circle cx="81.51515151515152" cy="342.7710843373494" r="4" fill="#dfb317" class="data-point" style="animation-delay: 1.55s" />
    <circle cx="103.03030303030303" cy="339.1566265060241" r="4" fill="#dfb317" class="data-point" style="animation-delay: 1.60s" />
    <circle cx="124.54545454545455" cy="336.4457831325301" r="4" fill="#dfb317" class="data-point" style="animation-delay: 1.65s" />
    <circle cx="146.06060606060606" cy="334.6385542168675" r="4" fill="#dfb317" class="data-point" style="animation-delay: 1.70s" />
    <circle cx="167.57575757575756" cy="331.4759036144578" r="4" fill="#dfb317" class="data-point" style="animation-delay: 1.75s" />
    <circle cx="189.0909090909091" cy="328.3132530120482" r="4" fill="#dfb317" class="data-point" style="animation-delay: 1.80s" />
    <circle cx="210.60606060606062" cy="324.2469879518072" r="4" fill="#dfb317" class="data-point" style="animation-delay: 1.85s" />
    <circle cx="232.12121212121212" cy="314.7590361445783" r="4" fill="#dfb317" class="data-point" style="animation-delay: 1.90s" />
    <circle cx="253.63636363636363" cy="306.1746987951807" r="4" fill="#dfb317" class="data-point" style="animation-delay: 1.95s" />
    <circle cx="275.1515151515151" cy="300.7530120481928" r="4" fill="#dfb317" class="data-point" style="animation-delay: 2.00s" />
    <circle cx="296.66666666666663" cy="294.87951807228916" r="4" fill="#dfb317" class="data-point" style="animation-delay: 2.05s" />
    <circle cx="318.1818181818182" cy="286.2951807228916" r="4" fill="#dfb317" class="data-point" style="animation-delay: 2.10s" />
    <circle cx="339.6969696969697" cy="279.9698795180723" r="4" fill="#dfb317" class="data-point" style="animation-delay: 2.15s" />
    <circle cx="361.21212121212125" cy="272.7409638554217" r="4" fill="#dfb317" class="data-point" style="animation-delay: 2.20s" />
    <circle cx="382.7272727272727" cy="262.34939759036143" r="4" fill="#dfb317" class="data-point" style="animation-delay: 2.25s" />
    <circle cx="404.24242424242425" cy="253.76506024096386" r="4" fill="#dfb317" class="data-point" style="animation-delay: 2.30s" />
    <circle cx="425.75757575757575" cy="245.63253012048193" r="4" fill="#dfb317" class="data-point" style="animation-delay: 2.35s" />
    <circle cx="447.27272727272725" cy="237.95180722891567" r="4" fill="#dfb317" class="data-point" style="animation-delay: 2.40s" />
    <circle cx="468.7878787878788" cy="228.0120481927711" r="4" fill="#dfb317" class="data-point" style="animation-delay: 2.45s" />
    <circle cx="490.3030303030303" cy="218.52409638554218" r="4" fill="#dfb317" class="data-point" style="animation-delay: 2.50s" />
    <circle cx="511.8181818181818" cy="208.5843373493976" r="4" fill="#dfb317" class="data-point" style="animation-delay: 2.55s" />
    <circle cx="533.3333333333333" cy="202.710843373494" r="4" fill="#dfb317" class="data-point" style="animation-delay: 2.60s" />
    <circle cx="554.8484848484849" cy="195.93373493975906" r="4" fill="#dfb317" class="data-point" style="animation-delay: 2.65s" />
    <circle cx="576.3636363636364" cy="187.80120481927713" r="4" fill="#dfb317" class="data-point" style="animation-delay: 2.70s" />
    <circle cx="597.8787878787879" cy="178.76506024096386" r="4" fill="#dfb317" class="data-point" style="animation-delay: 2.75s" />
    <circle cx="619.3939393939394" cy="167.0180722891566" r="4" fill="#dfb317" class="data-point" style="animation-delay: 2.80s" />
    <circle cx="640.909090909091" cy="149.84939759036146" r="4" fill="#dfb317" class="data-point" style="animation-delay: 2.85s" />
    <circle cx="662.4242424242425" cy="130.8734939759036" r="4" fill="#dfb317" class="data-point" style="animation-delay: 2.90s" />
    <circle cx="683.9393939393939" cy="82.07831325301203" r="4" fill="#dfb317" class="data-point" style="animation-delay: 2.95s" />
  </g>
</svg>