<svg xmlns="http://www.w3.org/2000/svg" xmlns:xlink="http://www.w3.org/1999/xlink" style="text-rendering: geometricprecision; cursor: auto;" width="325.9171447753906" height="325.9171447753906"><rect id="backgroundrect" width="100%" height="100%" x="0" y="0" fill="none" stroke="none" class="" style=""/><desc>Created with Snap</desc><defs><linearGradient x1="0" y1="0.5" x2="1" y2="0.5" id="linearGradientSkb89zmad1ja9"><stop offset="0%" stop-color="#db5423"/><stop offset="100%" stop-color="#db5423"/></linearGradient><linearGradient x1="0" y1="0.5" x2="1" y2="0.5" id="linearGradientSkb89zmad1jai"><stop offset="0%" stop-color="#5fb0d9"/><stop offset="100%" stop-color="#5fb0d9"/></linearGradient><linearGradient x1="0" y1="0.5" x2="1" y2="0.5" id="linearGradientSkb89zmad1jar"><stop offset="0%" stop-color="#db5423"/><stop offset="100%" stop-color="#db5423"/></linearGradient><linearGradient x1="0" y1="0.5" x2="1" y2="0.5" id="linearGradientSkb89zmad1jb0"><stop offset="0%" stop-color="#5fb0d9"/><stop offset="100%" stop-color="#5fb0d9"/></linearGradient><linearGradient x1="0" y1="0.5" x2="1" y2="0.5" id="linearGradientSkb89zmad1jb9"><stop offset="0%" stop-color="#e89700"/><stop offset="100%" stop-color="#e89700"/></linearGradient><linearGradient x1="0" y1="0.5" x2="1" y2="0.5" id="linearGradientSkb89zmad1jbi"><stop offset="0%" stop-color="#59a86a"/><stop offset="100%" stop-color="#59a86a"/></linearGradient><linearGradient x1="0" y1="0.5" x2="1" y2="0.5" id="linearGradientSkb89zmad1jbs"><stop offset="0%" stop-color="#db5423"/><stop offset="100%" stop-color="#db5423"/></linearGradient><linearGradient x1="0" y1="0.5" x2="1" y2="0.5" id="linearGradientSkb89zmad1jbv"><stop offset="0%" stop-color="#5fb0d9"/><stop offset="100%" stop-color="#5fb0d9"/></linearGradient><linearGradient x1="0" y1="0.5" x2="1" y2="0.5" id="linearGradientSkb89zmad1jby"><stop offset="0%" stop-color="#db5423"/><stop offset="100%" stop-color="#db5423"/></linearGradient><linearGradient x1="0" y1="0.5" x2="1" y2="0.5" id="linearGradientSkb89zmad1jc1"><stop offset="0%" stop-color="#5fb0d9"/><stop offset="100%" stop-color="#5fb0d9"/></linearGradient><linearGradient x1="0" y1="0.5" x2="1" y2="0.5" id="linearGradientSkb89zmad1jc4"><stop offset="0%" stop-color="#e89700"/><stop offset="100%" stop-color="#e89700"/></linearGradient><linearGradient x1="0" y1="0.5" x2="1" y2="0.5" id="linearGradientSkb89zmad1jc7"><stop offset="0%" stop-color="#59a86a"/><stop offset="100%" stop-color="#59a86a"/></linearGradient><linearGradient x1="0" y1="0.5" x2="1" y2="0.5" id="linearGradientSkb89zmad1jcd"><stop offset="0%" stop-color="#db5423"/><stop offset="100%" stop-color="#db5423"/></linearGradient><linearGradient x1="0" y1="0.5" x2="1" y2="0.5" id="linearGradientSkb89zmad1jcg"><stop offset="0%" stop-color="#5fb0d9"/><stop offset="100%" stop-color="#5fb0d9"/></linearGradient><linearGradient x1="0" y1="0.5" x2="1" y2="0.5" id="linearGradientSkb89zmad1jcj"><stop offset="0%" stop-color="#db5423"/><stop offset="100%" stop-color="#db5423"/></linearGradient><linearGradient x1="0" y1="0.5" x2="1" y2="0.5" id="linearGradientSkb89zmad1jcm"><stop offset="0%" stop-color="#5fb0d9"/><stop offset="100%" stop-color="#5fb0d9"/></linearGradient><linearGradient x1="0" y1="0.5" x2="1" y2="0.5" id="linearGradientSkb89zmad1jcp"><stop offset="0%" stop-color="#e89700"/><stop offset="100%" stop-color="#e89700"/></linearGradient><linearGradient x1="0" y1="0.5" x2="1" y2="0.5" id="linearGradientSkb89zmad1jcs"><stop offset="0%" stop-color="#59a86a"/><stop offset="100%" stop-color="#59a86a"/></linearGradient><linearGradient x1="0" y1="0.5" x2="1" y2="0.5" id="linearGradientSkb89zmad1lg7"><stop offset="0%" stop-color="#27313b"/><stop offset="100%" stop-color="#27313b"/></linearGradient><linearGradient x1="0" y1="0.5" x2="1" y2="0.5" id="linearGradientSkb89zmad1lgg"><stop offset="0%" stop-color="#db5423"/><stop offset="100%" stop-color="#db5423"/></linearGradient><linearGradient x1="0" y1="0.5" x2="1" y2="0.5" id="linearGradientSkb89zmad1lgj"><stop offset="0%" stop-color="#5fb0d9"/><stop offset="100%" stop-color="#5fb0d9"/></linearGradient><linearGradient x1="0" y1="0.5" x2="1" y2="0.5" id="linearGradientSkb89zmad1lgm"><stop offset="0%" stop-color="#db5423"/><stop offset="100%" stop-color="#db5423"/></linearGradient><linearGradient x1="0" y1="0.5" x2="1" y2="0.5" id="linearGradientSkb89zmad1lgp"><stop offset="0%" stop-color="#5fb0d9"/><stop offset="100%" stop-color="#5fb0d9"/></linearGradient><linearGradient x1="0" y1="0.5" x2="1" y2="0.5" id="linearGradientSkb89zmad1lgs"><stop offset="0%" stop-color="#e89700"/><stop offset="100%" stop-color="#e89700"/></linearGradient><linearGradient x1="0" y1="0.5" x2="1" y2="0.5" id="linearGradientSkb89zmad1lgv"><stop offset="0%" stop-color="#59a86a"/><stop offset="100%" stop-color="#59a86a"/></linearGradient><linearGradient x1="0" y1="0.5" x2="1" y2="0.5" id="linearGradientSkb89zmad1lha"><stop offset="0%" stop-color="#db5423"/><stop offset="100%" stop-color="#db5423"/></linearGradient><linearGradient x1="0" y1="0.5" x2="1" y2="0.5" id="linearGradientSkb89zmad1lhd"><stop offset="0%" stop-color="#5fb0d9"/><stop offset="100%" stop-color="#5fb0d9"/></linearGradient><linearGradient x1="0" y1="0.5" x2="1" y2="0.5" id="linearGradientSkb89zmad1lhg"><stop offset="0%" stop-color="#db5423"/><stop offset="100%" stop-color="#db5423"/></linearGradient><linearGradient x1="0" y1="0.5" x2="1" y2="0.5" id="linearGradientSkb89zmad1lhj"><stop offset="0%" stop-color="#5fb0d9"/><stop offset="100%" stop-color="#5fb0d9"/></linearGradient><linearGradient x1="0" y1="0.5" x2="1" y2="0.5" id="linearGradientSkb89zmad1lhm"><stop offset="0%" stop-color="#e89700"/><stop offset="100%" stop-color="#e89700"/></linearGradient><linearGradient x1="0" y1="0.5" x2="1" y2="0.5" id="linearGradientSkb89zmad1lhp"><stop offset="0%" stop-color="#59a86a"/><stop offset="100%" stop-color="#59a86a"/></linearGradient><linearGradient x1="0" y1="0.5" x2="1" y2="0.5" id="linearGradientSkb89zmad1lhs"><stop offset="0%" stop-color="#db5423"/><stop offset="100%" stop-color="#db5423"/></linearGradient><linearGradient x1="0" y1="0.5" x2="1" y2="0.5" id="linearGradientSkb89zmad1lhv"><stop offset="0%" stop-color="#5fb0d9"/><stop offset="100%" stop-color="#5fb0d9"/></linearGradient><linearGradient x1="0" y1="0.5" x2="1" y2="0.5" id="linearGradientSkb89zmad1lhy"><stop offset="0%" stop-color="#db5423"/><stop offset="100%" stop-color="#db5423"/></linearGradient><linearGradient x1="0" y1="0.5" x2="1" y2="0.5" id="linearGradientSkb89zmad1li1"><stop offset="0%" stop-color="#5fb0d9"/><stop offset="100%" stop-color="#5fb0d9"/></linearGradient><linearGradient x1="0" y1="0.5" x2="1" y2="0.5" id="linearGradientSkb89zmad1li4"><stop offset="0%" stop-color="#e89700"/><stop offset="100%" stop-color="#e89700"/></linearGradient><linearGradient x1="0" y1="0.5" x2="1" y2="0.5" id="linearGradientSkb89zmad1li7"><stop offset="0%" stop-color="#59a86a"/><stop offset="100%" stop-color="#59a86a"/></linearGradient><linearGradient x1="0" y1="0.5" x2="1" y2="0.5" id="linearGradientSkb89zmad1lia"><stop offset="0%" stop-color="#db5423"/><stop offset="100%" stop-color="#db5423"/></linearGradient><linearGradient x1="0" y1="0.5" x2="1" y2="0.5" id="linearGradientSkb89zmad1lid"><stop offset="0%" stop-color="#5fb0d9"/><stop offset="100%" stop-color="#5fb0d9"/></linearGradient><linearGradient x1="0" y1="0.5" x2="1" y2="0.5" id="linearGradientSkb89zmad1lig"><stop offset="0%" stop-color="#db5423"/><stop offset="100%" stop-color="#db5423"/></linearGradient><linearGradient x1="0" y1="0.5" x2="1" y2="0.5" id="linearGradientSkb89zmad1lij"><stop offset="0%" stop-color="#5fb0d9"/><stop offset="100%" stop-color="#5fb0d9"/></linearGradient><linearGradient x1="0" y1="0.5" x2="1" y2="0.5" id="linearGradientSkb89zmad1lim"><stop offset="0%" stop-color="#e89700"/><stop offset="100%" stop-color="#e89700"/></linearGradient><linearGradient x1="0" y1="0.5" x2="1" y2="0.5" id="linearGradientSkb89zmad1lip"><stop offset="0%" stop-color="#59a86a"/><stop offset="100%" stop-color="#59a86a"/></linearGradient><linearGradient x1="0" y1="0.5" x2="1" y2="0.5" id="linearGradientSkb89zmad1lis"><stop offset="0%" stop-color="#db5423"/><stop offset="100%" stop-color="#db5423"/></linearGradient><linearGradient x1="0" y1="0.5" x2="1" y2="0.5" id="linearGradientSkb89zmad1liv"><stop offset="0%" stop-color="#5fb0d9"/><stop offset="100%" stop-color="#5fb0d9"/></linearGradient><linearGradient x1="0" y1="0.5" x2="1" y2="0.5" id="linearGradientSkb89zmad1liy"><stop offset="0%" stop-color="#db5423"/><stop offset="100%" stop-color="#db5423"/></linearGradient><linearGradient x1="0" y1="0.5" x2="1" y2="0.5" id="linearGradientSkb89zmad1lj1"><stop offset="0%" stop-color="#5fb0d9"/><stop offset="100%" stop-color="#5fb0d9"/></linearGradient><linearGradient x1="0" y1="0.5" x2="1" y2="0.5" id="linearGradientSkb89zmad1lj4"><stop offset="0%" stop-color="#e89700"/><stop offset="100%" stop-color="#e89700"/></linearGradient><linearGradient x1="0" y1="0.5" x2="1" y2="0.5" id="linearGradientSkb89zmad1lj7"><stop offset="0%" stop-color="#59a86a"/><stop offset="100%" stop-color="#59a86a"/></linearGradient><linearGradient x1="0" y1="0.5" x2="1" y2="0.5" id="linearGradientSkb89zmad1lja"><stop offset="0%" stop-color="#db5423"/><stop offset="100%" stop-color="#db5423"/></linearGradient><linearGradient x1="0" y1="0.5" x2="1" y2="0.5" id="linearGradientSkb89zmad1ljd"><stop offset="0%" stop-color="#5fb0d9"/><stop offset="100%" stop-color="#5fb0d9"/></linearGradient><linearGradient x1="0" y1="0.5" x2="1" y2="0.5" id="linearGradientSkb89zmad1ljg"><stop offset="0%" stop-color="#db5423"/><stop offset="100%" stop-color="#db5423"/></linearGradient><linearGradient x1="0" y1="0.5" x2="1" y2="0.5" id="linearGradientSkb89zmad1ljj"><stop offset="0%" stop-color="#5fb0d9"/><stop offset="100%" stop-color="#5fb0d9"/></linearGradient><linearGradient x1="0" y1="0.5" x2="1" y2="0.5" id="linearGradientSkb89zmad1ljm"><stop offset="0%" stop-color="#e89700"/><stop offset="100%" stop-color="#e89700"/></linearGradient><linearGradient x1="0" y1="0.5" x2="1" y2="0.5" id="linearGradientSkb89zmad1ljp"><stop offset="0%" stop-color="#59a86a"/><stop offset="100%" stop-color="#59a86a"/></linearGradient><linearGradient x1="0" y1="0.5" x2="1" y2="0.5" id="linearGradientSkb89zmad1ljs"><stop offset="0%" stop-color="#db5423"/><stop offset="100%" stop-color="#db5423"/></linearGradient><linearGradient x1="0" y1="0.5" x2="1" y2="0.5" id="linearGradientSkb89zmad1ljv"><stop offset="0%" stop-color="#5fb0d9"/><stop offset="100%" stop-color="#5fb0d9"/></linearGradient><linearGradient x1="0" y1="0.5" x2="1" y2="0.5" id="linearGradientSkb89zmad1ljy"><stop offset="0%" stop-color="#db5423"/><stop offset="100%" stop-color="#db5423"/></linearGradient><linearGradient x1="0" y1="0.5" x2="1" y2="0.5" id="linearGradientSkb89zmad1lk1"><stop offset="0%" stop-color="#5fb0d9"/><stop offset="100%" stop-color="#5fb0d9"/></linearGradient><linearGradient x1="0" y1="0.5" x2="1" y2="0.5" id="linearGradientSkb89zmad1lk4"><stop offset="0%" stop-color="#e89700"/><stop offset="100%" stop-color="#e89700"/></linearGradient><linearGradient x1="0" y1="0.5" x2="1" y2="0.5" id="linearGradientSkb89zmad1lk7"><stop offset="0%" stop-color="#59a86a"/><stop offset="100%" stop-color="#59a86a"/></linearGradient><linearGradient x1="0" y1="0.5" x2="1" y2="0.5" id="linearGradientSkb89zmad1lka"><stop offset="0%" stop-color="#db5423"/><stop offset="100%" stop-color="#db5423"/></linearGradient><linearGradient x1="0" y1="0.5" x2="1" y2="0.5" id="linearGradientSkb89zmad1lkd"><stop offset="0%" stop-color="#5fb0d9"/><stop offset="100%" stop-color="#5fb0d9"/></linearGradient><linearGradient x1="0" y1="0.5" x2="1" y2="0.5" id="linearGradientSkb89zmad1lkg"><stop offset="0%" stop-color="#db5423"/><stop offset="100%" stop-color="#db5423"/></linearGradient><linearGradient x1="0" y1="0.5" x2="1" y2="0.5" id="linearGradientSkb89zmad1lkj"><stop offset="0%" stop-color="#5fb0d9"/><stop offset="100%" stop-color="#5fb0d9"/></linearGradient><linearGradient x1="0" y1="0.5" x2="1" y2="0.5" id="linearGradientSkb89zmad1lkm"><stop offset="0%" stop-color="#e89700"/><stop offset="100%" stop-color="#e89700"/></linearGradient><linearGradient x1="0" y1="0.5" x2="1" y2="0.5" id="linearGradientSkb89zmad1lkp"><stop offset="0%" stop-color="#59a86a"/><stop offset="100%" stop-color="#59a86a"/></linearGradient><linearGradient x1="0" y1="0.5" x2="1" y2="0.5" id="linearGradientSkb89zmad1lks"><stop offset="0%" stop-color="#db5423"/><stop offset="100%" stop-color="#db5423"/></linearGradient><linearGradient x1="0" y1="0.5" x2="1" y2="0.5" id="linearGradientSkb89zmad1lkv"><stop offset="0%" stop-color="#5fb0d9"/><stop offset="100%" stop-color="#5fb0d9"/></linearGradient><linearGradient x1="0" y1="0.5" x2="1" y2="0.5" id="linearGradientSkb89zmad1lky"><stop offset="0%" stop-color="#db5423"/><stop offset="100%" stop-color="#db5423"/></linearGradient><linearGradient x1="0" y1="0.5" x2="1" y2="0.5" id="linearGradientSkb89zmad1ll1"><stop offset="0%" stop-color="#5fb0d9"/><stop offset="100%" stop-color="#5fb0d9"/></linearGradient><linearGradient x1="0" y1="0.5" x2="1" y2="0.5" id="linearGradientSkb89zmad1ll4"><stop offset="0%" stop-color="#e89700"/><stop offset="100%" stop-color="#e89700"/></linearGradient><linearGradient x1="0" y1="0.5" x2="1" y2="0.5" id="linearGradientSkb89zmad1ll7"><stop offset="0%" stop-color="#59a86a"/><stop offset="100%" stop-color="#59a86a"/></linearGradient><linearGradient x1="0" y1="0.5" x2="1" y2="0.5" id="linearGradientSkb89zmad1lla"><stop offset="0%" stop-color="#db5423"/><stop offset="100%" stop-color="#db5423"/></linearGradient><linearGradient x1="0" y1="0.5" x2="1" y2="0.5" id="linearGradientSkb89zmad1lld"><stop offset="0%" stop-color="#5fb0d9"/><stop offset="100%" stop-color="#5fb0d9"/></linearGradient><linearGradient x1="0" y1="0.5" x2="1" y2="0.5" id="linearGradientSkb89zmad1llg"><stop offset="0%" stop-color="#db5423"/><stop offset="100%" stop-color="#db5423"/></linearGradient><linearGradient x1="0" y1="0.5" x2="1" y2="0.5" id="linearGradientSkb89zmad1llj"><stop offset="0%" stop-color="#5fb0d9"/><stop offset="100%" stop-color="#5fb0d9"/></linearGradient><linearGradient x1="0" y1="0.5" x2="1" y2="0.5" id="linearGradientSkb89zmad1llm"><stop offset="0%" stop-color="#e89700"/><stop offset="100%" stop-color="#e89700"/></linearGradient><linearGradient x1="0" y1="0.5" x2="1" y2="0.5" id="linearGradientSkb89zmad1llp"><stop offset="0%" stop-color="#59a86a"/><stop offset="100%" stop-color="#59a86a"/></linearGradient><linearGradient x1="0" y1="0.5" x2="1" y2="0.5" id="linearGradientSkb89zmad1lm4"><stop offset="0%" stop-color="#db5423"/><stop offset="100%" stop-color="#db5423"/></linearGradient><linearGradient x1="0" y1="0.5" x2="1" y2="0.5" id="linearGradientSkb89zmad1lm7"><stop offset="0%" stop-color="#5fb0d9"/><stop offset="100%" stop-color="#5fb0d9"/></linearGradient><linearGradient x1="0" y1="0.5" x2="1" y2="0.5" id="linearGradientSkb89zmad1lma"><stop offset="0%" stop-color="#db5423"/><stop offset="100%" stop-color="#db5423"/></linearGradient><linearGradient x1="0" y1="0.5" x2="1" y2="0.5" id="linearGradientSkb89zmad1lmd"><stop offset="0%" stop-color="#5fb0d9"/><stop offset="100%" stop-color="#5fb0d9"/></linearGradient><linearGradient x1="0" y1="0.5" x2="1" y2="0.5" id="linearGradientSkb89zmad1lmg"><stop offset="0%" stop-color="#e89700"/><stop offset="100%" stop-color="#e89700"/></linearGradient><linearGradient x1="0" y1="0.5" x2="1" y2="0.5" id="linearGradientSkb89zmad1lmj"><stop offset="0%" stop-color="#59a86a"/><stop offset="100%" stop-color="#59a86a"/></linearGradient><linearGradient x1="0" y1="0.5" x2="1" y2="0.5" id="linearGradientSkb89zmad1lmm"><stop offset="0%" stop-color="#db5423"/><stop offset="100%" stop-color="#db5423"/></linearGradient><linearGradient x1="0" y1="0.5" x2="1" y2="0.5" id="linearGradientSkb89zmad1lmp"><stop offset="0%" stop-color="#5fb0d9"/><stop offset="100%" stop-color="#5fb0d9"/></linearGradient><linearGradient x1="0" y1="0.5" x2="1" y2="0.5" id="linearGradientSkb89zmad1lms"><stop offset="0%" stop-color="#db5423"/><stop offset="100%" stop-color="#db5423"/></linearGradient><linearGradient x1="0" y1="0.5" x2="1" y2="0.5" id="linearGradientSkb89zmad1lmv"><stop offset="0%" stop-color="#5fb0d9"/><stop offset="100%" stop-color="#5fb0d9"/></linearGradient><linearGradient x1="0" y1="0.5" x2="1" y2="0.5" id="linearGradientSkb89zmad1lmy"><stop offset="0%" stop-color="#e89700"/><stop offset="100%" stop-color="#e89700"/></linearGradient><linearGradient x1="0" y1="0.5" x2="1" y2="0.5" id="linearGradientSkb89zmad1ln1"><stop offset="0%" stop-color="#59a86a"/><stop offset="100%" stop-color="#59a86a"/></linearGradient><linearGradient x1="0" y1="0.5" x2="1" y2="0.5" id="linearGradientSkb89zmad1ln4"><stop offset="0%" stop-color="#db5423"/><stop offset="100%" stop-color="#db5423"/></linearGradient><linearGradient x1="0" y1="0.5" x2="1" y2="0.5" id="linearGradientSkb89zmad1ln7"><stop offset="0%" stop-color="#5fb0d9"/><stop offset="100%" stop-color="#5fb0d9"/></linearGradient><linearGradient x1="0" y1="0.5" x2="1" y2="0.5" id="linearGradientSkb89zmad1lna"><stop offset="0%" stop-color="#db5423"/><stop offset="100%" stop-color="#db5423"/></linearGradient><linearGradient x1="0" y1="0.5" x2="1" y2="0.5" id="linearGradientSkb89zmad1lnd"><stop offset="0%" stop-color="#5fb0d9"/><stop offset="100%" stop-color="#5fb0d9"/></linearGradient><linearGradient x1="0" y1="0.5" x2="1" y2="0.5" id="linearGradientSkb89zmad1lng"><stop offset="0%" stop-color="#e89700"/><stop offset="100%" stop-color="#e89700"/></linearGradient><linearGradient x1="0" y1="0.5" x2="1" y2="0.5" id="linearGradientSkb89zmad1lnj"><stop offset="0%" stop-color="#59a86a"/><stop offset="100%" stop-color="#59a86a"/></linearGradient><linearGradient x1="0" y1="0.5" x2="1" y2="0.5" id="linearGradientSkb89zmad1lnm"><stop offset="0%" stop-color="#db5423"/><stop offset="100%" stop-color="#db5423"/></linearGradient><linearGradient x1="0" y1="0.5" x2="1" y2="0.5" id="linearGradientSkb89zmad1lnp"><stop offset="0%" stop-color="#5fb0d9"/><stop offset="100%" stop-color="#5fb0d9"/></linearGradient><linearGradient x1="0" y1="0.5" x2="1" y2="0.5" id="linearGradientSkb89zmad1lns"><stop offset="0%" stop-color="#db5423"/><stop offset="100%" stop-color="#db5423"/></linearGradient><linearGradient x1="0" y1="0.5" x2="1" y2="0.5" id="linearGradientSkb89zmad1lnv"><stop offset="0%" stop-color="#5fb0d9"/><stop offset="100%" stop-color="#5fb0d9"/></linearGradient><linearGradient x1="0" y1="0.5" x2="1" y2="0.5" id="linearGradientSkb89zmad1lny"><stop offset="0%" stop-color="#e89700"/><stop offset="100%" stop-color="#e89700"/></linearGradient><linearGradient x1="0" y1="0.5" x2="1" y2="0.5" id="linearGradientSkb89zmad1lo1"><stop offset="0%" stop-color="#59a86a"/><stop offset="100%" stop-color="#59a86a"/></linearGradient><linearGradient x1="0" y1="0.5" x2="1" y2="0.5" id="linearGradientSkb89zmad1lo4"><stop offset="0%" stop-color="#db5423"/><stop offset="100%" stop-color="#db5423"/></linearGradient><linearGradient x1="0" y1="0.5" x2="1" y2="0.5" id="linearGradientSkb89zmad1lo7"><stop offset="0%" stop-color="#5fb0d9"/><stop offset="100%" stop-color="#5fb0d9"/></linearGradient><linearGradient x1="0" y1="0.5" x2="1" y2="0.5" id="linearGradientSkb89zmad1loa"><stop offset="0%" stop-color="#db5423"/><stop offset="100%" stop-color="#db5423"/></linearGradient><linearGradient x1="0" y1="0.5" x2="1" y2="0.5" id="linearGradientSkb89zmad1lod"><stop offset="0%" stop-color="#5fb0d9"/><stop offset="100%" stop-color="#5fb0d9"/></linearGradient><linearGradient x1="0" y1="0.5" x2="1" y2="0.5" id="linearGradientSkb89zmad1log"><stop offset="0%" stop-color="#e89700"/><stop offset="100%" stop-color="#e89700"/></linearGradient><linearGradient x1="0" y1="0.5" x2="1" y2="0.5" id="linearGradientSkb89zmad1loj"><stop offset="0%" stop-color="#59a86a"/><stop offset="100%" stop-color="#59a86a"/></linearGradient><linearGradient x1="0" y1="0.5" x2="1" y2="0.5" id="linearGradientSkb89zmad1lom"><stop offset="0%" stop-color="#db5423"/><stop offset="100%" stop-color="#db5423"/></linearGradient><linearGradient x1="0" y1="0.5" x2="1" y2="0.5" id="linearGradientSkb89zmad1lop"><stop offset="0%" stop-color="#5fb0d9"/><stop offset="100%" stop-color="#5fb0d9"/></linearGradient><linearGradient x1="0" y1="0.5" x2="1" y2="0.5" id="linearGradientSkb89zmad1los"><stop offset="0%" stop-color="#db5423"/><stop offset="100%" stop-color="#db5423"/></linearGradient><linearGradient x1="0" y1="0.5" x2="1" y2="0.5" id="linearGradientSkb89zmad1lov"><stop offset="0%" stop-color="#5fb0d9"/><stop offset="100%" stop-color="#5fb0d9"/></linearGradient><linearGradient x1="0" y1="0.5" x2="1" y2="0.5" id="linearGradientSkb89zmad1loy"><stop offset="0%" stop-color="#e89700"/><stop offset="100%" stop-color="#e89700"/></linearGradient><linearGradient x1="0" y1="0.5" x2="1" y2="0.5" id="linearGradientSkb89zmad1lp1"><stop offset="0%" stop-color="#59a86a"/><stop offset="100%" stop-color="#59a86a"/></linearGradient><linearGradient x1="0" y1="0.5" x2="1" y2="0.5" id="linearGradientSkb89zmad1lp4"><stop offset="0%" stop-color="#db5423"/><stop offset="100%" stop-color="#db5423"/></linearGradient><linearGradient x1="0" y1="0.5" x2="1" y2="0.5" id="linearGradientSkb89zmad1lp7"><stop offset="0%" stop-color="#5fb0d9"/><stop offset="100%" stop-color="#5fb0d9"/></linearGradient><linearGradient x1="0" y1="0.5" x2="1" y2="0.5" id="linearGradientSkb89zmad1lpa"><stop offset="0%" stop-color="#db5423"/><stop offset="100%" stop-color="#db5423"/></linearGradient><linearGradient x1="0" y1="0.5" x2="1" y2="0.5" id="linearGradientSkb89zmad1lpd"><stop offset="0%" stop-color="#5fb0d9"/><stop offset="100%" stop-color="#5fb0d9"/></linearGradient><linearGradient x1="0" y1="0.5" x2="1" y2="0.5" id="linearGradientSkb89zmad1lpg"><stop offset="0%" stop-color="#e89700"/><stop offset="100%" stop-color="#e89700"/></linearGradient><linearGradient x1="0" y1="0.5" x2="1" y2="0.5" id="linearGradientSkb89zmad1lpj"><stop offset="0%" stop-color="#59a86a"/><stop offset="100%" stop-color="#59a86a"/></linearGradient><linearGradient x1="0" y1="0.5" x2="1" y2="0.5" id="linearGradientSkb89zmad1lpm"><stop offset="0%" stop-color="#db5423"/><stop offset="100%" stop-color="#db5423"/></linearGradient><linearGradient x1="0" y1="0.5" x2="1" y2="0.5" id="linearGradientSkb89zmad1lpp"><stop offset="0%" stop-color="#5fb0d9"/><stop offset="100%" stop-color="#5fb0d9"/></linearGradient><linearGradient x1="0" y1="0.5" x2="1" y2="0.5" id="linearGradientSkb89zmad1lps"><stop offset="0%" stop-color="#db5423"/><stop offset="100%" stop-color="#db5423"/></linearGradient><linearGradient x1="0" y1="0.5" x2="1" y2="0.5" id="linearGradientSkb89zmad1lpv"><stop offset="0%" stop-color="#5fb0d9"/><stop offset="100%" stop-color="#5fb0d9"/></linearGradient><linearGradient x1="0" y1="0.5" x2="1" y2="0.5" id="linearGradientSkb89zmad1lpy"><stop offset="0%" stop-color="#e89700"/><stop offset="100%" stop-color="#e89700"/></linearGradient><linearGradient x1="0" y1="0.5" x2="1" y2="0.5" id="linearGradientSkb89zmad1lq1"><stop offset="0%" stop-color="#59a86a"/><stop offset="100%" stop-color="#59a86a"/></linearGradient><linearGradient x1="0" y1="0.5" x2="1" y2="0.5" id="linearGradientSkb89zmad1lq4"><stop offset="0%" stop-color="#db5423"/><stop offset="100%" stop-color="#db5423"/></linearGradient><linearGradient x1="0" y1="0.5" x2="1" y2="0.5" id="linearGradientSkb89zmad1lq7"><stop offset="0%" stop-color="#5fb0d9"/><stop offset="100%" stop-color="#5fb0d9"/></linearGradient><linearGradient x1="0" y1="0.5" x2="1" y2="0.5" id="linearGradientSkb89zmad1lqa"><stop offset="0%" stop-color="#db5423"/><stop offset="100%" stop-color="#db5423"/></linearGradient><linearGradient x1="0" y1="0.5" x2="1" y2="0.5" id="linearGradientSkb89zmad1lqd"><stop offset="0%" stop-color="#5fb0d9"/><stop offset="100%" stop-color="#5fb0d9"/></linearGradient><linearGradient x1="0" y1="0.5" x2="1" y2="0.5" id="linearGradientSkb89zmad1lqg"><stop offset="0%" stop-color="#e89700"/><stop offset="100%" stop-color="#e89700"/></linearGradient><linearGradient x1="0" y1="0.5" x2="1" y2="0.5" id="linearGradientSkb89zmad1lqj"><stop offset="0%" stop-color="#59a86a"/><stop offset="100%" stop-color="#59a86a"/></linearGradient><linearGradient x1="0" y1="0.5" x2="1" y2="0.5" id="linearGradientSkb89zmad1lqm"><stop offset="0%" stop-color="#db5423"/><stop offset="100%" stop-color="#db5423"/></linearGradient><linearGradient x1="0" y1="0.5" x2="1" y2="0.5" id="linearGradientSkb89zmad1lqp"><stop offset="0%" stop-color="#5fb0d9"/><stop offset="100%" stop-color="#5fb0d9"/></linearGradient><linearGradient x1="0" y1="0.5" x2="1" y2="0.5" id="linearGradientSkb89zmad1lqs"><stop offset="0%" stop-color="#db5423"/><stop offset="100%" stop-color="#db5423"/></linearGradient><linearGradient x1="0" y1="0.5" x2="1" y2="0.5" id="linearGradientSkb89zmad1lqv"><stop offset="0%" stop-color="#5fb0d9"/><stop offset="100%" stop-color="#5fb0d9"/></linearGradient><linearGradient x1="0" y1="0.5" x2="1" y2="0.5" id="linearGradientSkb89zmad1lqy"><stop offset="0%" stop-color="#e89700"/><stop offset="100%" stop-color="#e89700"/></linearGradient><linearGradient x1="0" y1="0.5" x2="1" y2="0.5" id="linearGradientSkb89zmad1lr1"><stop offset="0%" stop-color="#59a86a"/><stop offset="100%" stop-color="#59a86a"/></linearGradient><linearGradient x1="0" y1="0.5" x2="1" y2="0.5" id="linearGradientSkb89zmad1lr4"><stop offset="0%" stop-color="#db5423"/><stop offset="100%" stop-color="#db5423"/></linearGradient><linearGradient x1="0" y1="0.5" x2="1" y2="0.5" id="linearGradientSkb89zmad1lr7"><stop offset="0%" stop-color="#5fb0d9"/><stop offset="100%" stop-color="#5fb0d9"/></linearGradient><linearGradient x1="0" y1="0.5" x2="1" y2="0.5" id="linearGradientSkb89zmad1lra"><stop offset="0%" stop-color="#db5423"/><stop offset="100%" stop-color="#db5423"/></linearGradient><linearGradient x1="0" y1="0.5" x2="1" y2="0.5" id="linearGradientSkb89zmad1lrd"><stop offset="0%" stop-color="#5fb0d9"/><stop offset="100%" stop-color="#5fb0d9"/></linearGradient><linearGradient x1="0" y1="0.5" x2="1" y2="0.5" id="linearGradientSkb89zmad1lrg"><stop offset="0%" stop-color="#e89700"/><stop offset="100%" stop-color="#e89700"/></linearGradient><linearGradient x1="0" y1="0.5" x2="1" y2="0.5" id="linearGradientSkb89zmad1lrj"><stop offset="0%" stop-color="#59a86a"/><stop offset="100%" stop-color="#59a86a"/></linearGradient></defs><g class="currentLayer" style=""><title>Layer 1</title><g class="selector-part" id="svg_13"><rect x="-26.03550148010254" y="12.426034927368164" width="0" height="0" fill="rgba(255,255,255,0)" style="cursor: move;" transform="matrix(1,0,0,1,613,162) " stroke-width="0" id="svg_14"/></g><rect x="-116.59851837158203" y="-27.75130844116211" width="15" height="15" fill="none" style="" class="svg-hitbox" transform="matrix(5.5011,0,0,5.5011,763.7418,304.7418) " stroke-width="0" id="svg_16"/><g id="svg_1" transform="matrix(5.5011,0,0,5.5011,763.7418,304.7418) " stroke-width="0" class="" fill="#ffffff" fill-opacity="1"><svg width="15.269000053405762" height="15.666999816894531" viewBox="24.365,23.643,15.268999999999995,15.667000000000002" id="svg_7" x="-116.59851837158203" y="-27.75130844116211"><desc>Created with Snap</desc><defs/><g id="svg_10" fill="#ffffff" fill-opacity="1"/><g id="svg_8" fill="#ffffff" fill-opacity="1"><path d="M29.365,28.643c0.204,0.365,0.39,0.742,0.543,1.138c0.596,1.551,1.296,3.067,2.087,4.529   c0.787-1.457,1.494-2.963,2.096-4.529c0.153-0.396,0.339-0.773,0.543-1.138c-0.841,0.23-1.722,0.364-2.635,0.364   S30.206,28.874,29.365,28.643z" stroke="none" fill="#ffffff" style="" id="svg_9" fill-opacity="1"/></g></svg></g><g id="svg_2" transform="matrix(5.5011,0,0,5.5011,673.2364,291.488) " stroke-width="0" class="" fill="#ffffff" fill-opacity="1"><svg width="25.268999099731445" height="22" viewBox="8.011000000000001,21.006999999999998,25.269,22" id="svg_11" x="-116.59851837158203" y="-27.75130844116211"><desc>Created with Snap</desc><defs/><g id="svg_18" fill="#ffffff" fill-opacity="1"/><g id="svg_12" fill="#ffffff" fill-opacity="1"><path d="M14.385,36.007c0.535,0,1.008-0.341,1.177-0.849l1.093-3.275c0.374-1.122,1.42-1.876,2.603-1.876   c1.513,0,2.743,1.23,2.743,2.743v4.257c0,0.552,0.448,1,1,1s1-0.448,1-1v-1c0-2.51,1.865-4.574,4.279-4.927   c-0.078-0.194-0.163-0.385-0.238-0.58c-1.033-2.688-3.662-4.493-6.541-4.493s-5.508,1.806-6.541,4.493   c-0.568,1.477-1.224,2.905-1.949,4.291l0.265,0.53C13.486,35.745,13.911,36.007,14.385,36.007z" stroke="none" fill="#ffffff" style="" id="svg_17" fill-opacity="1"/></g></svg></g><g id="svg_3" transform="matrix(5.5011,0,0,5.5011,692.2277,167.7331) " stroke-width="0" class="" fill="#ffffff" fill-opacity="1"><svg width="41.82400131225586" height="31.170000076293945" viewBox="11.087999999999997,-1.9060000000000001,41.824,31.17" id="svg_19" x="-116.59851837158203" y="-27.75130844116211"><desc>Created with Snap</desc><defs/><g id="svg_22" fill="#ffffff" fill-opacity="1"/><g id="svg_20" fill="#ffffff" fill-opacity="1"><path d="M20.405,22.117c0.176,0.658-0.048,1.335-0.433,2.034c0.501-0.088,1.01-0.144,1.528-0.144c0.687,0,1.356,0.105,2.01,0.257   c-0.951-1.53-1.51-3.327-1.51-5.257c0-5.514,4.486-10,10-10s10,4.486,10,10c0,1.93-0.559,3.727-1.51,5.257   c0.654-0.152,1.322-0.257,2.01-0.257c0.518,0,1.027,0.056,1.527,0.144c-0.385-0.7-0.609-1.377-0.433-2.035   c0.274-1.027,1.451-1.597,2.698-2.2c0.506-0.245,1.304-0.632,1.62-0.908c-0.316-0.276-1.114-0.662-1.62-0.907   c-1.246-0.604-2.424-1.174-2.698-2.202c-0.283-1.057,0.466-2.163,1.258-3.334c0.296-0.437,0.757-1.117,0.909-1.509   c-0.42-0.067-1.255-0.006-1.791,0.033c-1.396,0.102-2.72,0.199-3.485-0.566c-0.765-0.765-0.668-2.086-0.566-3.485   c0.039-0.535,0.101-1.372,0.033-1.791c-0.392,0.152-1.072,0.613-1.509,0.909c-1.172,0.792-2.277,1.541-3.335,1.258   c-1.027-0.274-1.597-1.451-2.2-2.698C32.663,4.208,32.276,3.411,32,3.094c-0.276,0.316-0.662,1.114-0.907,1.62   c-0.604,1.246-1.174,2.424-2.202,2.698c-1.053,0.284-2.162-0.466-3.334-1.258c-0.437-0.296-1.117-0.757-1.509-0.909   c-0.066,0.419-0.006,1.256,0.033,1.791c0.102,1.399,0.198,2.721-0.566,3.485c-0.765,0.766-2.087,0.668-3.485,0.566   c-0.536-0.039-1.373-0.101-1.791-0.033c0.152,0.392,0.613,1.072,0.909,1.509c0.792,1.171,1.541,2.277,1.258,3.335   c-0.274,1.027-1.451,1.597-2.698,2.2c-0.506,0.245-1.304,0.632-1.62,0.908c0.316,0.276,1.114,0.662,1.62,0.907   C18.953,20.518,20.131,21.088,20.405,22.117z" stroke="none" fill="#ffffff" style="" id="svg_21" fill-opacity="1"/></g></svg></g><g id="svg_4" transform="matrix(5.5011,0,0,5.5011,799.2364,293.2386) " stroke-width="0" class="" fill="#ffffff" fill-opacity="1"><svg width="25.270999908447266" height="22" viewBox="30.719,21.007,25.271,21.999999999999996" id="svg_23" x="-116.59851837158203" y="-27.75130844116211"><desc>Created with Snap</desc><defs/><g id="svg_26" fill="#ffffff" fill-opacity="1"/><g id="svg_24" fill="#ffffff" fill-opacity="1"><path d="M42.5,26.007c-2.879,0-5.508,1.806-6.541,4.493c-0.075,0.196-0.162,0.385-0.24,0.58C38.133,31.432,40,33.497,40,36.007v1   c0,0.552,0.448,1,1,1s1-0.448,1-1V32.75c0-1.513,1.23-2.743,2.743-2.743c1.183,0,2.229,0.754,2.603,1.876l1.092,3.275   c0.17,0.508,0.643,0.849,1.178,0.849c0.474,0,0.898-0.263,1.109-0.685l0.265-0.531c-0.725-1.386-1.381-2.814-1.949-4.291   C48.008,27.813,45.379,26.007,42.5,26.007z" stroke="none" fill="#ffffff" style="" id="svg_25" fill-opacity="1"/></g></svg></g><g id="svg_5" transform="matrix(5.5011,0,0,5.5011,736.4858,210.4858) " stroke-width="0" class="" fill="#ffffff" fill-opacity="1"><svg width="26.02387046813965" height="26" viewBox="18.988064861574863,6.0070000000000014,26.023870276850268,26" id="svg_27" x="-116.59851837158203" y="-27.75130844116211"><desc>Created with Snap</desc><defs/><g id="svg_30" fill="#ffffff" fill-opacity="1"/><g id="svg_28" fill="#ffffff" fill-opacity="1"><circle cx="32" cy="19.006999969482422" r="8" stroke="none" fill="#ffffff" style="" id="svg_29" fill-opacity="1"/></g></svg></g><g id="svg_6" transform="matrix(5.5011,0,0,5.5011,617.9629,323.2364) " stroke-width="0" class="" fill="#ffffff" fill-opacity="1"><svg width="68" height="25" viewBox="-2,27.006999999999998,68,25" id="svg_31" x="-116.59851837158203" y="-27.75130844116211"><desc>Created with Snap</desc><defs/><g id="svg_34" fill="#ffffff" fill-opacity="1"/><g id="svg_32" fill="#ffffff" fill-opacity="1"><path d="M58.586,45.007l-0.333-0.333c-2.382-2.382-4.424-5.017-6.13-7.865c-0.606,0.748-1.514,1.198-2.508,1.198   c-1.397,0-2.634-0.891-3.075-2.216l-1.091-3.275c-0.102-0.305-0.386-0.509-0.706-0.509c-0.41,0-0.743,0.333-0.743,0.743v4.257   c0,1.654-1.346,3-3,3s-3-1.346-3-3v-1c0-1.654-1.346-3-3-3h-0.113c-2.008,4.34-4.732,8.259-8.14,11.667l-0.333,0.333h-2.828   l1.747-1.747c2.115-2.115,3.946-4.442,5.501-6.946c-0.622-1.073-1.197-2.178-1.72-3.307H29c-1.654,0-3,1.346-3,3v1   c0,1.654-1.346,3-3,3s-3-1.346-3-3V32.75c0-0.41-0.333-0.743-0.743-0.743c-0.32,0-0.604,0.204-0.706,0.509l-1.092,3.275   c-0.44,1.325-1.677,2.216-3.074,2.216c-0.994,0-1.902-0.449-2.508-1.198c-1.705,2.849-3.748,5.484-6.13,7.865l-0.333,0.333H3v2h58   v-2H58.586z" stroke="none" fill="#ffffff" style="" id="svg_33" fill-opacity="1"/></g></svg></g><g id="svg_55" class=""><rect x="-26.03550148010254" y="12.426034927368164" width="0" height="0" fill="rgba(255,136,0,0.1)" stroke="#ff8800" style="stroke-width: 1;" id="svg_56"/></g><g class="selector-part" id="svg_57"><rect x="-26.03550148010254" y="12.426034927368164" width="0" height="0" fill="rgba(168,202,236,0.5)" stroke="#3399ff" style="stroke-width: 1;" id="svg_58"/></g></g></svg>